<?xml version="1.0" encoding="UTF-8" standalone="no" ?>
<!DOCTYPE svg PUBLIC "-//W3C//DTD SVG 1.1//EN" "http://www.w3.org/Graphics/SVG/1.1/DTD/svg11.dtd">
<svg xmlns="http://www.w3.org/2000/svg" xmlns:xlink="http://www.w3.org/1999/xlink" version="1.1" width="1080" height="1080" viewBox="0 0 1080 1080" xml:space="preserve">
<desc>Created with Fabric.js 5.2.4</desc>
<defs>
</defs>
<g transform="matrix(1 0 0 1 540 540)" id="976c5ec6-b74f-46f9-99a3-028801878bc6"  >
<rect style="stroke: none; stroke-width: 1; stroke-dasharray: none; stroke-linecap: butt; stroke-dashoffset: 0; stroke-linejoin: miter; stroke-miterlimit: 4; fill: rgb(255,255,255); fill-rule: nonzero; opacity: 1; visibility: hidden;" vector-effect="non-scaling-stroke"  x="-540" y="-540" rx="0" ry="0" width="1080" height="1080" />
</g>
<g transform="matrix(1 0 0 1 540 540)" id="8adc4bee-6d30-4a70-bb7d-17597d5caf21"  >
</g>
<g transform="matrix(1 0 0 1 540 540)"  >
<g style="opacity: 1;" vector-effect="non-scaling-stroke"   >
		<g transform="matrix(0.13 0 0 -0.13 0 0)"  >
<path style="stroke: none; stroke-width: 1; stroke-dasharray: none; stroke-linecap: butt; stroke-dashoffset: 0; stroke-linejoin: miter; stroke-miterlimit: 4; fill: rgb(35,153,22); fill-rule: nonzero; opacity: 1;" vector-effect="non-scaling-stroke"  transform=" translate(-2500, -2500.43)" d="M 2320 4463 C 2241 4457 2058 4422 1965 4395 C 1304 4206 796 3698 605 3035 C 553 2854 537 2733 536 2505 C 536 2328 539 2275 559 2166 C 594 1967 650 1798 740 1618 C 1088 925 1807 501 2580 533 C 3296 563 3937 976 4256 1613 C 4407 1912 4464 2157 4464 2500 C 4464 2771 4430 2965 4343 3194 C 4029 4023 3213 4534 2320 4463 z M 2769 4354 C 3476 4251 4055 3765 4281 3086 C 4342 2904 4361 2784 4367 2563 C 4373 2331 4363 2226 4318 2045 C 4232 1701 4065 1412 3808 1159 C 3551 906 3208 726 2855 659 C 2717 632 2410 622 2276 639 C 1993 676 1768 754 1522 901 C 1081 1165 768 1614 659 2140 C 637 2244 635 2279 635 2505 C 636 2773 643 2830 704 3042 C 798 3365 1020 3705 1280 3922 C 1560 4157 1882 4305 2222 4354 C 2354 4373 2638 4374 2769 4354 z" stroke-linecap="round" />
</g>
		<g transform="matrix(0.13 0 0 -0.13 -0.11 0.08)"  >
<path style="stroke: none; stroke-width: 1; stroke-dasharray: none; stroke-linecap: butt; stroke-dashoffset: 0; stroke-linejoin: miter; stroke-miterlimit: 4; fill: rgb(35,153,22); fill-rule: nonzero; opacity: 1;" vector-effect="non-scaling-stroke"  transform=" translate(-2499.21, -2499.87)" d="M 2306 4339 C 1979 4305 1652 4174 1380 3971 C 1281 3897 1097 3712 1024 3614 C 611 3057 535 2343 822 1725 C 1083 1165 1597 774 2205 675 C 2690 595 3184 715 3598 1013 C 3699 1085 3894 1277 3971 1380 C 4474 2051 4474 2948 3971 3620 C 3899 3717 3727 3889 3624 3967 C 3246 4254 2772 4388 2306 4339 z M 2791 4276 C 3098 4225 3382 4098 3630 3900 C 3948 3646 4175 3275 4260 2870 C 4341 2484 4292 2085 4121 1724 C 3947 1359 3668 1076 3305 895 C 3072 779 2893 729 2643 710 C 2322 684 2012 741 1730 876 C 1361 1053 1082 1325 896 1689 C 637 2196 637 2799 897 3315 C 1166 3850 1691 4215 2295 4289 C 2400 4302 2682 4295 2791 4276 z" stroke-linecap="round" />
</g>
		<g transform="matrix(0.13 0 0 -0.13 -0.06 0.05)"  >
<path style="stroke: none; stroke-width: 1; stroke-dasharray: none; stroke-linecap: butt; stroke-dashoffset: 0; stroke-linejoin: miter; stroke-miterlimit: 4; fill: rgb(35,153,22); fill-rule: nonzero; opacity: 1;" vector-effect="non-scaling-stroke"  transform=" translate(-2499.57, -2500.07)" d="M 2235 4234 C 1998 4194 1748 4101 1563 3983 C 1353 3850 1144 3637 1010 3420 C 759 3017 685 2520 806 2057 C 919 1622 1198 1246 1585 1008 C 1756 902 1996 811 2198 774 C 2320 752 2563 745 2690 759 C 3415 841 4018 1363 4195 2059 C 4285 2415 4264 2791 4136 3128 C 4005 3472 3732 3802 3424 3991 C 3225 4113 2998 4195 2752 4235 C 2643 4253 2345 4253 2235 4234 z M 2660 3679 C 2990 3627 3265 3463 3459 3205 C 3526 3117 3612 2941 3644 2829 C 3810 2248 3522 1646 2961 1404 C 2709 1295 2404 1280 2142 1366 C 1829 1468 1578 1681 1437 1965 C 1354 2132 1321 2263 1313 2455 C 1309 2562 1312 2618 1324 2690 C 1413 3199 1798 3585 2305 3674 C 2402 3691 2571 3694 2660 3679 z M 1090 2473 C 1129 2423 1099 2360 1036 2360 C 994 2360 970 2386 970 2431 C 970 2499 1048 2526 1090 2473 z M 4012 2483 C 4045 2446 4042 2392 4006 2368 C 3986 2355 3937 2360 3918 2377 C 3891 2401 3894 2464 3922 2484 C 3952 2505 3993 2504 4012 2483 z M 1505 1639 C 1488 1622 1438 1576 1393 1537 C 1347 1498 1310 1462 1310 1457 C 1310 1452 1330 1425 1355 1397 C 1380 1368 1400 1342 1400 1338 C 1400 1334 1390 1325 1378 1319 C 1357 1308 1350 1313 1283 1386 C 1243 1429 1210 1467 1210 1470 C 1210 1475 1327 1582 1458 1698 L 1484 1721 L 1509 1696 L 1534 1670 L 1505 1639 z M 3750 1433 C 3750 1429 3738 1414 3724 1399 L 3698 1372 L 3603 1432 C 3551 1465 3507 1490 3505 1488 C 3503 1486 3528 1442 3560 1390 L 3619 1295 L 3589 1265 L 3560 1235 L 3527 1254 C 3510 1264 3455 1295 3405 1322 C 3356 1350 3313 1374 3311 1376 C 3308 1379 3318 1392 3332 1406 L 3357 1432 L 3421 1393 C 3456 1372 3499 1345 3515 1335 L 3545 1315 L 3529 1340 C 3520 1354 3494 1396 3471 1433 L 3429 1501 L 3452 1530 C 3465 1546 3481 1559 3487 1559 C 3499 1560 3581 1512 3643 1469 C 3677 1444 3677 1451 3642 1503 C 3626 1526 3602 1566 3587 1591 L 3561 1637 L 3587 1663 L 3613 1689 L 3682 1565 C 3719 1496 3750 1437 3750 1433 z M 1714 1527 C 1739 1509 1732 1466 1704 1462 C 1683 1459 1650 1483 1650 1500 C 1650 1510 1679 1540 1689 1540 C 1693 1540 1704 1534 1714 1527 z M 1837 1438 C 1846 1431 1840 1413 1814 1370 C 1795 1338 1780 1309 1780 1306 C 1780 1303 1793 1303 1809 1306 C 1842 1313 1894 1289 1910 1261 C 1926 1231 1922 1179 1899 1130 C 1873 1072 1845 1043 1803 1029 C 1775 1020 1763 1021 1732 1037 C 1712 1048 1689 1069 1682 1083 C 1672 1104 1665 1108 1653 1101 C 1636 1092 1587 1107 1592 1121 C 1594 1125 1637 1205 1689 1298 C 1790 1481 1787 1478 1837 1438 z M 1649 1436 L 1672 1412 L 1589 1308 C 1544 1251 1504 1202 1501 1198 C 1497 1194 1481 1201 1465 1214 L 1436 1237 L 1456 1262 C 1517 1342 1616 1460 1621 1460 C 1624 1460 1637 1449 1649 1436 z M 3295 1328 C 3309 1322 3330 1301 3342 1282 C 3367 1241 3368 1242 3268 1187 C 3205 1153 3197 1136 3234 1119 C 3267 1104 3303 1114 3346 1152 C 3375 1178 3383 1181 3391 1169 C 3420 1124 3346 1060 3256 1052 C 3204 1048 3201 1049 3162 1088 C 3117 1133 3095 1187 3104 1233 C 3121 1315 3218 1363 3295 1328 z M 2765 1216 C 2808 1188 2806 1092 2762 1075 C 2749 1070 2752 1066 2778 1055 C 2856 1021 2839 905 2750 872 C 2736 867 2689 859 2644 855 L 2564 848 L 2542 1031 C 2530 1131 2522 1215 2524 1217 C 2532 1225 2665 1238 2703 1235 C 2724 1233 2751 1225 2765 1216 z M 3040 1226 C 3040 1218 3043 1205 3046 1196 C 3050 1186 3041 1177 3016 1166 C 2994 1157 2978 1142 2975 1127 C 2970 1107 2992 1007 3016 946 C 3019 939 3006 929 2986 923 L 2952 912 L 2905 1047 C 2880 1122 2861 1184 2862 1186 C 2864 1187 2877 1191 2892 1195 C 2913 1200 2919 1198 2925 1181 C 2932 1157 2950 1153 2950 1175 C 2950 1198 2996 1240 3020 1240 C 3031 1240 3040 1234 3040 1226 z M 2057 1210 C 2068 1210 2071 1203 2066 1185 C 2061 1167 2064 1160 2074 1160 C 2082 1160 2092 1165 2095 1170 C 2103 1183 2177 1183 2185 1171 C 2188 1166 2185 1150 2178 1136 C 2168 1113 2162 1111 2133 1116 C 2080 1126 2056 1103 2025 1010 C 1999 931 1997 929 1971 935 C 1957 938 1942 945 1938 948 C 1934 952 1949 1015 1972 1088 C 2003 1187 2017 1219 2028 1215 C 2035 1212 2049 1210 2057 1210 z M 2400 1135 C 2439 1115 2460 1072 2460 1014 L 2460 968 L 2428 973 C 2410 977 2367 982 2333 986 C 2273 992 2270 991 2270 971 C 2270 960 2279 941 2291 929 C 2308 912 2321 909 2371 912 C 2429 915 2430 915 2430 888 C 2430 867 2424 860 2399 855 C 2356 845 2291 857 2252 881 C 2177 926 2173 1051 2245 1118 C 2274 1144 2288 1150 2325 1150 C 2350 1150 2384 1143 2400 1135 z" stroke-linecap="round" />
</g>
		<g transform="matrix(0.13 0 0 -0.13 0.23 0.04)"  >
<path style="stroke: none; stroke-width: 1; stroke-dasharray: none; stroke-linecap: butt; stroke-dashoffset: 0; stroke-linejoin: miter; stroke-miterlimit: 4; fill: rgb(35,153,22); fill-rule: nonzero; opacity: 1;" vector-effect="non-scaling-stroke"  transform=" translate(-2501.7, -2500.13)" d="M 2441 3379 C 2423 3372 2419 3365 2424 3347 C 2437 3303 2442 3175 2431 3148 C 2422 3123 2418 3121 2395 3130 C 2380 3136 2351 3140 2329 3140 C 2282 3140 2179 3106 2164 3085 C 2158 3077 2141 3070 2126 3070 C 2086 3070 2031 3038 1959 2973 C 1924 2941 1882 2906 1866 2894 C 1847 2880 1839 2867 1843 2857 C 1851 2836 1912 2825 1950 2838 C 1966 2844 1980 2847 1980 2845 C 1980 2832 1863 2546 1842 2509 C 1810 2452 1817 2430 1865 2430 C 1898 2430 1901 2428 1893 2408 C 1885 2383 1885 2375 1888 2161 L 1890 2017 L 1928 2023 C 1948 2026 1975 2032 1988 2036 C 2005 2041 2010 2038 2010 2024 C 2010 1997 2050 1930 2127 1828 C 2191 1742 2215 1725 2226 1755 C 2231 1766 2238 1762 2256 1740 C 2284 1708 2403 1620 2419 1620 C 2425 1620 2430 1631 2430 1645 C 2430 1678 2442 1677 2463 1640 C 2486 1602 2514 1602 2536 1639 C 2555 1671 2570 1671 2570 1639 C 2570 1629 2575 1620 2581 1620 C 2597 1620 2716 1708 2744 1740 C 2762 1762 2769 1766 2774 1755 C 2785 1725 2808 1742 2874 1830 C 2952 1935 2990 1997 2990 2024 C 2990 2038 2995 2041 3013 2036 C 3025 2032 3052 2026 3073 2023 L 3110 2017 L 3112 2161 C 3115 2375 3115 2383 3107 2408 C 3099 2428 3102 2430 3132 2430 C 3188 2430 3194 2446 3160 2505 C 3144 2533 3110 2610 3084 2676 C 3059 2741 3034 2805 3029 2817 C 3021 2839 3022 2839 3063 2834 C 3111 2828 3160 2843 3160 2864 C 3160 2871 3148 2885 3134 2895 C 3120 2904 3078 2940 3040 2974 C 2965 3043 2918 3070 2872 3070 C 2856 3070 2840 3076 2837 3084 C 2828 3107 2704 3143 2651 3137 C 2626 3135 2597 3129 2588 3125 C 2574 3120 2570 3127 2564 3165 C 2558 3211 2563 3302 2576 3347 C 2581 3365 2577 3372 2555 3380 C 2523 3392 2473 3392 2441 3379 z M 2510 3350 C 2481 3344 2479 3342 2500 3341 C 2523 3339 2524 3338 2505 3330 C 2487 3322 2487 3321 2510 3320 C 2530 3318 2531 3317 2516 3313 C 2501 3309 2500 3306 2511 3299 C 2527 3289 2530 3248 2515 3238 C 2509 3233 2509 3230 2518 3230 C 2524 3230 2530 3225 2530 3219 C 2530 3214 2524 3212 2518 3216 C 2508 3222 2508 3221 2517 3209 C 2536 3186 2536 3184 2520 3165 C 2511 3154 2510 3149 2518 3154 C 2524 3158 2530 3157 2530 3152 C 2530 3144 2461 3129 2453 3135 C 2451 3136 2455 3152 2461 3171 C 2467 3190 2468 3238 2464 3283 L 2458 3360 L 2501 3359 L 2545 3357 L 2510 3350 z M 2510 3110 L 2485 3102 L 2510 3101 C 2532 3100 2533 3098 2518 3089 C 2508 3084 2503 3073 2506 3065 C 2516 3040 2495 3049 2472 3079 C 2452 3106 2452 3109 2468 3113 C 2477 3116 2496 3118 2510 3118 L 2535 3118 L 2510 3110 z M 2374 3103 C 2378 3098 2385 3095 2388 3094 C 2407 3092 2447 3070 2459 3056 C 2475 3038 2463 3035 2425 3050 C 2411 3055 2363 3062 2318 3065 C 2273 3068 2234 3072 2232 3074 C 2225 3082 2298 3098 2329 3096 C 2345 3095 2357 3098 2354 3102 C 2348 3112 2364 3113 2374 3103 z M 2750 3095 C 2793 3079 2776 3071 2700 3073 C 2670 3073 2634 3070 2621 3066 C 2605 3060 2600 3061 2604 3069 C 2609 3077 2604 3077 2584 3070 C 2539 3052 2544 3068 2591 3090 C 2641 3112 2699 3114 2750 3095 z M 2150 3018 C 2121 3002 2075 2964 2047 2935 C 1992 2878 1959 2860 1907 2860 L 1876 2860 L 1900 2877 C 1914 2886 1929 2900 1933 2907 C 1937 2914 1948 2920 1957 2920 C 1966 2920 1971 2923 1967 2926 C 1958 2935 1986 2960 2007 2961 C 2017 2961 2020 2964 2012 2967 C 1994 2974 2008 2990 2033 2991 C 2047 2991 2050 2994 2041 2997 C 2013 3008 2098 3048 2152 3048 L 2202 3048 L 2150 3018 z M 2931 3027 C 2951 3015 3003 2972 3046 2933 L 3125 2860 L 3087 2860 C 3066 2860 3051 2864 3054 2869 C 3058 2874 3052 2876 3043 2874 C 3033 2871 3016 2876 3005 2885 C 2994 2894 2992 2898 3000 2894 C 3012 2887 3013 2889 3003 2902 C 2996 2910 2993 2920 2997 2924 C 3001 2928 2996 2928 2986 2924 C 2973 2919 2969 2920 2973 2927 C 2977 2933 2967 2946 2952 2955 C 2917 2978 2875 3020 2886 3021 C 2891 3021 2879 3028 2860 3035 L 2825 3048 L 2860 3049 C 2880 3050 2911 3040 2931 3027 z M 2432 3023 C 2437 3021 2424 3002 2404 2982 C 2349 2926 2327 2887 2274 2751 C 2234 2647 2217 2617 2173 2570 C 2113 2505 2053 2474 1962 2462 C 1918 2456 1898 2457 1884 2467 C 1871 2477 1870 2480 1881 2480 C 1893 2480 1893 2482 1880 2490 C 1869 2497 1879 2505 1923 2525 C 1955 2539 1986 2550 1992 2550 C 1998 2550 2001 2553 1997 2556 C 1994 2559 1970 2555 1944 2546 C 1856 2516 1871 2529 1976 2575 C 2067 2615 2064 2622 1972 2586 C 1938 2572 1910 2566 1910 2571 C 1910 2582 2026 2640 2050 2641 C 2059 2641 2060 2644 2054 2646 C 2047 2649 2016 2642 1984 2631 C 1889 2597 1904 2620 2005 2664 C 2071 2692 2068 2699 2000 2675 C 1913 2644 1922 2667 2010 2700 C 2082 2727 2084 2736 2014 2715 C 1956 2697 1960 2698 1960 2709 C 1960 2714 1989 2729 2024 2741 C 2100 2768 2104 2778 2031 2756 C 1964 2736 1965 2754 2033 2785 C 2088 2811 2087 2816 2032 2800 C 2004 2793 2000 2793 2009 2804 C 2015 2812 2041 2823 2065 2830 C 2122 2846 2117 2854 2059 2841 C 2035 2836 2014 2833 2012 2835 C 2004 2843 2058 2870 2110 2884 C 2140 2892 2156 2899 2145 2899 C 2134 2900 2108 2895 2087 2889 C 2065 2883 2046 2881 2043 2883 C 2034 2893 2084 2913 2154 2926 L 2225 2940 L 2155 2936 C 2113 2934 2093 2936 2105 2941 C 2116 2945 2143 2950 2165 2951 L 2205 2953 L 2170 2959 C 2142 2964 2139 2967 2153 2973 C 2163 2977 2190 2981 2213 2981 L 2255 2983 L 2215 2989 C 2179 2995 2178 2996 2200 3002 C 2214 3006 2251 3012 2284 3016 C 2324 3020 2338 3025 2329 3032 C 2315 3041 2417 3033 2432 3023 z M 2775 3019 C 2831 3002 2852 2989 2909 2932 C 2975 2867 2978 2861 3039 2705 C 3074 2617 3112 2526 3126 2504 L 3150 2462 L 3126 2458 C 3082 2449 2980 2469 2923 2497 C 2867 2525 2808 2576 2787 2615 C 2778 2633 2778 2634 2796 2621 C 2806 2613 2826 2596 2840 2584 C 2854 2572 2879 2555 2895 2546 C 2925 2529 2925 2529 2900 2547 C 2852 2582 2809 2623 2788 2654 C 2768 2682 2771 2681 2820 2640 C 2873 2597 2872 2598 2798 2679 C 2707 2778 2694 2809 2778 2729 C 2880 2632 2897 2623 2813 2711 C 2724 2804 2705 2833 2769 2778 C 2791 2760 2832 2725 2862 2701 C 2913 2659 2913 2659 2850 2722 C 2814 2757 2763 2810 2735 2840 L 2685 2894 L 2725 2865 C 2747 2849 2788 2819 2815 2797 L 2865 2757 L 2815 2806 C 2787 2833 2745 2872 2720 2893 L 2675 2931 L 2733 2895 C 2764 2875 2790 2862 2790 2864 C 2790 2867 2757 2893 2718 2921 C 2650 2968 2654 2978 2725 2943 C 2772 2919 2741 2945 2685 2975 C 2644 2997 2641 3001 2665 2996 C 2690 2992 2687 2994 2653 3010 C 2629 3020 2610 3032 2610 3035 C 2610 3048 2714 3038 2775 3019 z M 2557 2973 C 2601 2941 2647 2872 2671 2802 C 2700 2722 2694 2613 2657 2539 C 2625 2474 2513 2337 2497 2343 C 2471 2351 2349 2516 2329 2569 C 2276 2711 2342 2916 2464 2991 C 2496 3010 2511 3008 2557 2973 z M 2290 2603 C 2290 2569 2337 2484 2391 2421 C 2479 2317 2475 2328 2447 2266 C 2433 2236 2401 2191 2377 2166 C 2334 2124 2234 2063 2223 2073 C 2221 2076 2226 2091 2236 2107 L 2254 2135 L 2230 2115 C 2207 2096 2207 2097 2235 2145 C 2261 2191 2261 2193 2240 2175 C 2218 2156 2218 2156 2244 2208 C 2276 2271 2271 2276 2235 2218 C 2218 2190 2211 2184 2216 2200 C 2220 2214 2240 2253 2261 2288 C 2308 2365 2303 2369 2254 2295 C 2234 2265 2215 2240 2213 2240 C 2211 2240 2219 2259 2230 2283 L 2251 2325 L 2230 2300 L 2209 2275 L 2215 2300 C 2219 2314 2231 2340 2241 2358 C 2270 2409 2263 2410 2230 2360 C 2198 2312 2190 2320 2216 2373 L 2231 2405 L 2210 2380 C 2193 2361 2195 2369 2219 2415 L 2249 2475 L 2214 2435 C 2180 2397 2179 2397 2193 2426 C 2202 2444 2222 2473 2237 2491 L 2264 2525 L 2225 2490 L 2186 2455 L 2204 2485 C 2214 2502 2234 2529 2249 2545 C 2271 2571 2269 2570 2236 2540 C 2203 2510 2199 2508 2211 2530 C 2218 2544 2224 2558 2225 2562 C 2225 2565 2229 2572 2234 2577 C 2239 2582 2240 2579 2235 2571 C 2230 2561 2231 2559 2239 2564 C 2245 2568 2248 2576 2244 2581 C 2237 2594 2258 2620 2276 2620 C 2284 2620 2290 2612 2290 2603 z M 2805 2523 C 2824 2485 2824 2451 2805 2330 C 2797 2278 2790 2198 2790 2153 C 2790 2107 2786 2070 2781 2070 C 2715 2070 2562 2210 2545 2285 L 2538 2315 L 2558 2285 C 2568 2269 2587 2247 2598 2236 C 2616 2221 2614 2227 2589 2274 C 2572 2306 2560 2333 2562 2336 C 2565 2338 2584 2315 2605 2285 C 2656 2210 2668 2206 2625 2277 C 2607 2309 2588 2349 2585 2365 C 2580 2388 2586 2382 2610 2340 C 2649 2271 2670 2250 2640 2310 C 2612 2365 2599 2410 2610 2410 C 2615 2410 2624 2394 2630 2375 C 2647 2322 2660 2323 2644 2377 C 2627 2432 2626 2450 2640 2450 C 2646 2450 2650 2446 2650 2441 C 2650 2426 2681 2358 2686 2362 C 2688 2365 2683 2386 2675 2410 C 2651 2479 2657 2503 2685 2450 C 2714 2397 2716 2400 2694 2463 C 2673 2526 2682 2545 2709 2493 C 2737 2436 2744 2438 2719 2495 C 2689 2563 2699 2586 2734 2528 C 2767 2471 2778 2465 2751 2518 C 2741 2538 2729 2566 2726 2580 L 2719 2605 L 2740 2580 C 2759 2558 2760 2558 2751 2577 C 2745 2589 2740 2602 2740 2607 C 2740 2620 2788 2558 2805 2523 z M 2152 2423 C 2156 2336 2143 2245 2119 2199 C 2094 2149 2023 2089 1965 2067 L 1917 2050 L 1936 2072 C 1946 2084 1950 2090 1943 2087 C 1914 2070 1941 2117 1981 2153 C 2025 2192 2025 2192 1985 2163 C 1918 2113 1912 2116 1970 2171 L 2025 2223 L 1978 2191 C 1924 2155 1921 2154 1924 2177 C 1926 2186 1947 2211 1971 2233 L 2015 2272 L 1973 2246 C 1917 2212 1910 2213 1946 2251 L 1975 2283 L 1945 2265 L 1915 2246 L 1950 2285 L 1985 2323 L 1953 2301 C 1929 2285 1920 2282 1920 2292 C 1920 2300 1947 2324 1980 2345 C 2013 2366 2040 2386 2040 2388 C 2040 2390 2010 2376 1974 2356 C 1938 2336 1910 2325 1912 2332 C 1914 2339 1943 2359 1976 2377 C 2047 2416 2042 2419 1965 2385 C 1934 2372 1912 2365 1916 2371 C 1919 2376 1940 2388 1961 2397 C 1983 2405 1999 2414 1996 2417 C 1994 2419 1975 2414 1955 2405 C 1934 2397 1915 2392 1912 2395 C 1907 2400 1905 2399 2019 2439 C 2065 2455 2107 2473 2113 2479 C 2138 2504 2148 2489 2152 2423 z M 2925 2420 C 2945 2387 2963 2360 2966 2360 C 2968 2360 2959 2384 2945 2413 L 2919 2465 L 2951 2430 C 2969 2410 2978 2404 2971 2417 C 2952 2455 2960 2456 2992 2420 C 3010 2399 3018 2394 3011 2408 C 2998 2432 3008 2437 3029 2418 C 3040 2408 3042 2408 3036 2418 C 3031 2426 3036 2430 3049 2430 C 3082 2430 3093 2395 3086 2311 C 3083 2269 3079 2193 3079 2143 C 3078 2092 3076 2050 3075 2050 C 3065 2050 2980 2090 2980 2095 C 2980 2099 2985 2098 2991 2094 C 2997 2090 2982 2113 2956 2144 C 2909 2202 2887 2239 2870 2287 C 2862 2311 2862 2312 2873 2296 C 2907 2243 2919 2238 2895 2286 C 2867 2343 2865 2354 2881 2344 C 2889 2340 2890 2345 2886 2361 C 2879 2384 2879 2384 2894 2366 C 2912 2344 2915 2326 2900 2335 C 2885 2344 2888 2335 2911 2296 C 2933 2259 2948 2245 2930 2279 C 2912 2313 2919 2316 2946 2285 L 2971 2255 L 2947 2295 C 2933 2318 2912 2358 2900 2385 C 2888 2413 2876 2438 2873 2443 C 2871 2447 2871 2450 2874 2450 C 2876 2450 2895 2423 2915 2390 C 2935 2357 2956 2328 2961 2324 C 2967 2321 2961 2335 2947 2356 C 2916 2405 2878 2480 2884 2480 C 2887 2480 2905 2453 2925 2420 z M 2510 2272 C 2510 2262 2518 2243 2527 2230 C 2543 2206 2543 2206 2527 2219 C 2518 2226 2510 2228 2510 2222 C 2510 2210 2535 2188 2542 2195 C 2544 2198 2560 2185 2576 2167 L 2605 2135 L 2573 2164 C 2531 2202 2530 2186 2572 2143 C 2602 2112 2629 2098 2615 2121 C 2611 2127 2629 2115 2655 2096 C 2680 2076 2712 2057 2726 2054 C 2739 2051 2750 2042 2750 2036 C 2750 2017 2663 1876 2583 1767 C 2544 1713 2509 1664 2506 1657 C 2502 1650 2498 1649 2495 1655 C 2492 1661 2450 1721 2400 1790 C 2323 1897 2250 2016 2250 2033 C 2250 2036 2274 2051 2303 2068 C 2367 2104 2450 2191 2475 2248 C 2495 2292 2510 2303 2510 2272 z M 2938 2153 C 2962 2124 2977 2100 2972 2100 C 2960 2100 2870 2196 2870 2209 C 2870 2214 2867 2227 2864 2237 C 2861 2249 2864 2247 2877 2230 C 2887 2217 2914 2182 2938 2153 z M 2172 2128 C 2171 2077 2174 2063 2195 2039 C 2226 2001 2235 1938 2220 1851 C 2214 1812 2206 1780 2204 1780 C 2196 1780 2170 1841 2169 1862 C 2169 1884 2168 1884 2160 1865 C 2153 1848 2151 1851 2150 1880 C 2148 1912 2147 1913 2140 1890 C 2133 1868 2132 1870 2130 1905 C 2128 1940 2127 1942 2120 1920 C 2113 1897 2112 1898 2110 1930 C 2109 1960 2107 1962 2099 1945 C 2091 1929 2090 1930 2094 1955 C 2097 1972 2101 1994 2104 2005 C 2108 2016 2101 2007 2090 1985 C 2079 1962 2070 1953 2070 1963 C 2070 1973 2079 1999 2091 2021 C 2102 2044 2107 2059 2101 2055 C 2086 2046 2087 2060 2103 2080 C 2109 2089 2096 2076 2073 2051 C 2049 2026 2030 2010 2030 2016 C 2030 2022 2056 2056 2089 2091 C 2121 2126 2148 2160 2150 2165 C 2164 2219 2174 2203 2172 2128 z M 2849 2114 C 2851 2177 2862 2147 2870 2058 L 2877 1975 L 2880 2055 L 2882 2135 L 2895 2085 C 2908 2036 2908 2036 2910 2070 L 2912 2105 L 2920 2075 C 2924 2059 2928 2053 2929 2063 C 2930 2083 2941 2085 2958 2068 C 2987 2039 2969 1999 2860 1861 C 2804 1789 2795 1781 2788 1800 C 2775 1835 2767 1947 2775 1977 L 2783 2005 L 2790 1980 L 2798 1955 L 2799 1982 C 2801 2040 2815 2045 2821 1990 C 2826 1945 2827 1956 2830 2045 C 2832 2127 2835 2145 2840 2115 L 2847 2075 L 2849 2114 z M 2071 2009 C 2059 1990 2050 1981 2050 1988 C 2050 2003 2081 2052 2087 2046 C 2089 2044 2082 2027 2071 2009 z M 2338 1820 C 2387 1747 2418 1670 2399 1670 C 2394 1670 2390 1680 2390 1693 C 2390 1711 2388 1712 2380 1700 C 2372 1687 2370 1688 2370 1703 C 2370 1713 2366 1718 2360 1715 C 2355 1712 2350 1719 2349 1732 C 2348 1755 2348 1755 2340 1730 C 2335 1714 2332 1711 2331 1722 C 2330 1733 2325 1737 2315 1734 C 2304 1729 2300 1735 2300 1759 C 2300 1780 2296 1788 2286 1784 C 2276 1780 2271 1792 2266 1828 C 2260 1878 2267 1918 2280 1903 C 2284 1899 2310 1861 2338 1820 z M 2745 1820 C 2749 1802 2745 1786 2731 1769 C 2709 1741 2590 1655 2590 1667 C 2590 1690 2612 1750 2619 1746 C 2623 1743 2636 1761 2648 1786 C 2660 1811 2674 1829 2679 1825 C 2684 1822 2691 1826 2694 1832 C 2697 1839 2698 1834 2695 1820 C 2691 1799 2693 1800 2707 1828 C 2725 1862 2735 1860 2745 1820 z" stroke-linecap="round" />
</g>
		<g transform="matrix(0.13 0 0 -0.13 57.73 -64.25)"  >
<path style="stroke: none; stroke-width: 1; stroke-dasharray: none; stroke-linecap: butt; stroke-dashoffset: 0; stroke-linejoin: miter; stroke-miterlimit: 4; fill: rgb(35,153,22); fill-rule: nonzero; opacity: 1;" vector-effect="non-scaling-stroke"  transform=" translate(-2933, -2982.31)" d="M 2920 2986 C 2920 2984 2927 2979 2936 2976 C 2944 2973 2948 2974 2945 2980 C 2939 2990 2920 2994 2920 2986 z" stroke-linecap="round" />
</g>
		<g transform="matrix(0.13 0 0 -0.13 -25.78 -67.24)"  >
<path style="stroke: none; stroke-width: 1; stroke-dasharray: none; stroke-linecap: butt; stroke-dashoffset: 0; stroke-linejoin: miter; stroke-miterlimit: 4; fill: rgb(35,153,22); fill-rule: nonzero; opacity: 1;" vector-effect="non-scaling-stroke"  transform=" translate(-2306.61, -3004.75)" d="M 2293 3003 C 2302 3001 2316 3001 2323 3003 C 2329 3006 2322 3008 2305 3008 C 2289 3008 2283 3006 2293 3003 z" stroke-linecap="round" />
</g>
		<g transform="matrix(0.13 0 0 -0.13 -41.31 -53.91)"  >
<path style="stroke: none; stroke-width: 1; stroke-dasharray: none; stroke-linecap: butt; stroke-dashoffset: 0; stroke-linejoin: miter; stroke-miterlimit: 4; fill: rgb(35,153,22); fill-rule: nonzero; opacity: 1;" vector-effect="non-scaling-stroke"  transform=" translate(-2190.18, -2904.75)" d="M 2178 2903 C 2184 2901 2196 2901 2203 2903 C 2209 2906 2204 2908 2190 2908 C 2176 2908 2171 2906 2178 2903 z" stroke-linecap="round" />
</g>
		<g transform="matrix(0.13 0 0 -0.13 -52.55 -41.97)"  >
<path style="stroke: none; stroke-width: 1; stroke-dasharray: none; stroke-linecap: butt; stroke-dashoffset: 0; stroke-linejoin: miter; stroke-miterlimit: 4; fill: rgb(35,153,22); fill-rule: nonzero; opacity: 1;" vector-effect="non-scaling-stroke"  transform=" translate(-2105.86, -2815.19)" d="M 2098 2813 C 2105 2810 2114 2811 2117 2814 C 2121 2817 2115 2820 2104 2819 C 2093 2819 2090 2816 2098 2813 z" stroke-linecap="round" />
</g>
		<g transform="matrix(0.13 0 0 -0.13 42 -45.93)"  >
<path style="stroke: none; stroke-width: 1; stroke-dasharray: none; stroke-linecap: butt; stroke-dashoffset: 0; stroke-linejoin: miter; stroke-miterlimit: 4; fill: rgb(35,153,22); fill-rule: nonzero; opacity: 1;" vector-effect="non-scaling-stroke"  transform=" translate(-2815.03, -2844.9)" d="M 2800 2856 C 2800 2854 2808 2846 2818 2839 C 2833 2826 2834 2827 2821 2843 C 2808 2859 2800 2864 2800 2856 z" stroke-linecap="round" />
</g>
		<g transform="matrix(0.13 0 0 -0.13 56.67 -35.26)"  >
<path style="stroke: none; stroke-width: 1; stroke-dasharray: none; stroke-linecap: butt; stroke-dashoffset: 0; stroke-linejoin: miter; stroke-miterlimit: 4; fill: rgb(35,153,22); fill-rule: nonzero; opacity: 1;" vector-effect="non-scaling-stroke"  transform=" translate(-2925.03, -2764.9)" d="M 2910 2776 C 2910 2774 2918 2766 2928 2759 C 2943 2746 2944 2747 2931 2763 C 2918 2779 2910 2784 2910 2776 z" stroke-linecap="round" />
</g>
		<g transform="matrix(0.13 0 0 -0.13 60.67 -24.6)"  >
<path style="stroke: none; stroke-width: 1; stroke-dasharray: none; stroke-linecap: butt; stroke-dashoffset: 0; stroke-linejoin: miter; stroke-miterlimit: 4; fill: rgb(35,153,22); fill-rule: nonzero; opacity: 1;" vector-effect="non-scaling-stroke"  transform=" translate(-2955.03, -2684.9)" d="M 2940 2696 C 2940 2694 2948 2686 2958 2679 C 2973 2666 2974 2667 2961 2683 C 2948 2699 2940 2704 2940 2696 z" stroke-linecap="round" />
</g>
		<g transform="matrix(0.13 0 0 -0.13 67.56 -13)"  >
<path style="stroke: none; stroke-width: 1; stroke-dasharray: none; stroke-linecap: butt; stroke-dashoffset: 0; stroke-linejoin: miter; stroke-miterlimit: 4; fill: rgb(35,153,22); fill-rule: nonzero; opacity: 1;" vector-effect="non-scaling-stroke"  transform=" translate(-3006.69, -2597.93)" d="M 2984 2611 C 2991 2600 3030 2576 3030 2583 C 3030 2586 3018 2595 3004 2605 C 2989 2614 2981 2617 2984 2611 z" stroke-linecap="round" />
</g>
		<g transform="matrix(0.13 0 0 -0.13 8.43 -55.53)"  >
<path style="stroke: none; stroke-width: 1; stroke-dasharray: none; stroke-linecap: butt; stroke-dashoffset: 0; stroke-linejoin: miter; stroke-miterlimit: 4; fill: rgb(35,153,22); fill-rule: nonzero; opacity: 1;" vector-effect="non-scaling-stroke"  transform=" translate(-2563.22, -2916.89)" d="M 2500 2962 C 2500 2938 2512 2924 2578 2876 C 2651 2822 2640 2838 2555 2908 C 2533 2925 2521 2940 2528 2940 C 2535 2940 2538 2944 2535 2950 C 2532 2956 2536 2957 2545 2953 C 2556 2949 2558 2945 2551 2941 C 2544 2936 2553 2924 2572 2910 C 2599 2891 2602 2890 2587 2907 C 2578 2918 2572 2929 2575 2932 C 2582 2938 2523 2990 2509 2990 C 2504 2990 2500 2977 2500 2962 z" stroke-linecap="round" />
</g>
		<g transform="matrix(0.13 0 0 -0.13 9.6 -47.45)"  >
<path style="stroke: none; stroke-width: 1; stroke-dasharray: none; stroke-linecap: butt; stroke-dashoffset: 0; stroke-linejoin: miter; stroke-miterlimit: 4; fill: rgb(35,153,22); fill-rule: nonzero; opacity: 1;" vector-effect="non-scaling-stroke"  transform=" translate(-2571.98, -2856.32)" d="M 2515 2892 C 2541 2868 2640 2797 2640 2803 C 2640 2811 2518 2910 2507 2910 C 2501 2910 2504 2902 2515 2892 z" stroke-linecap="round" />
</g>
		<g transform="matrix(0.13 0 0 -0.13 -13.35 -50.24)"  >
<path style="stroke: none; stroke-width: 1; stroke-dasharray: none; stroke-linecap: butt; stroke-dashoffset: 0; stroke-linejoin: miter; stroke-miterlimit: 4; fill: rgb(35,153,22); fill-rule: nonzero; opacity: 1;" vector-effect="non-scaling-stroke"  transform=" translate(-2399.84, -2877.23)" d="M 2393 2875 C 2393 2867 2397 2863 2402 2866 C 2407 2869 2408 2876 2405 2881 C 2396 2894 2393 2892 2393 2875 z" stroke-linecap="round" />
</g>
		<g transform="matrix(0.13 0 0 -0.13 7.56 -44.45)"  >
<path style="stroke: none; stroke-width: 1; stroke-dasharray: none; stroke-linecap: butt; stroke-dashoffset: 0; stroke-linejoin: miter; stroke-miterlimit: 4; fill: rgb(35,153,22); fill-rule: nonzero; opacity: 1;" vector-effect="non-scaling-stroke"  transform=" translate(-2556.71, -2833.81)" d="M 2535 2844 C 2595 2794 2624 2780 2575 2824 C 2548 2849 2521 2870 2515 2870 C 2510 2869 2519 2858 2535 2844 z" stroke-linecap="round" />
</g>
		<g transform="matrix(0.13 0 0 -0.13 9.35 -37.71)"  >
<path style="stroke: none; stroke-width: 1; stroke-dasharray: none; stroke-linecap: butt; stroke-dashoffset: 0; stroke-linejoin: miter; stroke-miterlimit: 4; fill: rgb(35,153,22); fill-rule: nonzero; opacity: 1;" vector-effect="non-scaling-stroke"  transform=" translate(-2570.11, -2783.24)" d="M 2510 2832 C 2510 2826 2522 2815 2536 2805 C 2550 2796 2580 2772 2603 2752 C 2641 2719 2640 2721 2595 2769 C 2543 2823 2510 2848 2510 2832 z" stroke-linecap="round" />
</g>
		<g transform="matrix(0.13 0 0 -0.13 12.33 -29.12)"  >
<path style="stroke: none; stroke-width: 1; stroke-dasharray: none; stroke-linecap: butt; stroke-dashoffset: 0; stroke-linejoin: miter; stroke-miterlimit: 4; fill: rgb(35,153,22); fill-rule: nonzero; opacity: 1;" vector-effect="non-scaling-stroke"  transform=" translate(-2592.5, -2718.8)" d="M 2510 2788 C 2510 2780 2523 2767 2539 2757 C 2554 2748 2592 2719 2621 2693 L 2675 2646 L 2630 2694 C 2568 2760 2510 2805 2510 2788 z" stroke-linecap="round" />
</g>
		<g transform="matrix(0.13 0 0 -0.13 9.35 -25.54)"  >
<path style="stroke: none; stroke-width: 1; stroke-dasharray: none; stroke-linecap: butt; stroke-dashoffset: 0; stroke-linejoin: miter; stroke-miterlimit: 4; fill: rgb(35,153,22); fill-rule: nonzero; opacity: 1;" vector-effect="non-scaling-stroke"  transform=" translate(-2570.12, -2691.95)" d="M 2511 2745 C 2518 2729 2630 2626 2630 2636 C 2630 2642 2611 2664 2588 2686 C 2535 2735 2505 2758 2511 2745 z" stroke-linecap="round" />
</g>
		<g transform="matrix(0.13 0 0 -0.13 9.27 -19.12)"  >
<path style="stroke: none; stroke-width: 1; stroke-dasharray: none; stroke-linecap: butt; stroke-dashoffset: 0; stroke-linejoin: miter; stroke-miterlimit: 4; fill: rgb(35,153,22); fill-rule: nonzero; opacity: 1;" vector-effect="non-scaling-stroke"  transform=" translate(-2569.53, -2643.87)" d="M 2510 2698 C 2510 2689 2514 2680 2519 2678 C 2524 2677 2551 2653 2579 2627 C 2651 2559 2643 2583 2570 2655 C 2532 2693 2510 2708 2510 2698 z" stroke-linecap="round" />
</g>
		<g transform="matrix(0.13 0 0 -0.13 9.05 -13.6)"  >
<path style="stroke: none; stroke-width: 1; stroke-dasharray: none; stroke-linecap: butt; stroke-dashoffset: 0; stroke-linejoin: miter; stroke-miterlimit: 4; fill: rgb(35,153,22); fill-rule: nonzero; opacity: 1;" vector-effect="non-scaling-stroke"  transform=" translate(-2567.84, -2602.46)" d="M 2511 2653 C 2512 2648 2538 2623 2569 2595 L 2625 2546 L 2570 2603 C 2515 2661 2509 2666 2511 2653 z" stroke-linecap="round" />
</g>
		<g transform="matrix(0.13 0 0 -0.13 5.77 -10.92)"  >
<path style="stroke: none; stroke-width: 1; stroke-dasharray: none; stroke-linecap: butt; stroke-dashoffset: 0; stroke-linejoin: miter; stroke-miterlimit: 4; fill: rgb(35,153,22); fill-rule: nonzero; opacity: 1;" vector-effect="non-scaling-stroke"  transform=" translate(-2543.26, -2582.34)" d="M 2526 2589 C 2536 2578 2554 2563 2565 2558 C 2579 2550 2577 2556 2556 2579 C 2523 2613 2495 2623 2526 2589 z" stroke-linecap="round" />
</g>
		<g transform="matrix(0.13 0 0 -0.13 4.87 -6.23)"  >
<path style="stroke: none; stroke-width: 1; stroke-dasharray: none; stroke-linecap: butt; stroke-dashoffset: 0; stroke-linejoin: miter; stroke-miterlimit: 4; fill: rgb(35,153,22); fill-rule: nonzero; opacity: 1;" vector-effect="non-scaling-stroke"  transform=" translate(-2536.5, -2547.17)" d="M 2510 2572 C 2510 2567 2522 2553 2537 2539 L 2563 2515 L 2540 2548 C 2515 2581 2510 2586 2510 2572 z" stroke-linecap="round" />
</g>
		<g transform="matrix(0.13 0 0 -0.13 5.67 -1)"  >
<path style="stroke: none; stroke-width: 1; stroke-dasharray: none; stroke-linecap: butt; stroke-dashoffset: 0; stroke-linejoin: miter; stroke-miterlimit: 4; fill: rgb(35,153,22); fill-rule: nonzero; opacity: 1;" vector-effect="non-scaling-stroke"  transform=" translate(-2542.5, -2507.93)" d="M 2510 2531 C 2510 2526 2525 2511 2543 2499 L 2575 2477 L 2546 2508 C 2514 2542 2510 2545 2510 2531 z" stroke-linecap="round" />
</g>
		<g transform="matrix(0.13 0 0 -0.13 3.34 2.07)"  >
<path style="stroke: none; stroke-width: 1; stroke-dasharray: none; stroke-linecap: butt; stroke-dashoffset: 0; stroke-linejoin: miter; stroke-miterlimit: 4; fill: rgb(35,153,22); fill-rule: nonzero; opacity: 1;" vector-effect="non-scaling-stroke"  transform=" translate(-2525.03, -2484.9)" d="M 2510 2496 C 2510 2494 2518 2486 2528 2479 C 2543 2466 2544 2467 2531 2483 C 2518 2499 2510 2504 2510 2496 z" stroke-linecap="round" />
</g>
		<g transform="matrix(0.13 0 0 -0.13 4 6.72)"  >
<path style="stroke: none; stroke-width: 1; stroke-dasharray: none; stroke-linecap: butt; stroke-dashoffset: 0; stroke-linejoin: miter; stroke-miterlimit: 4; fill: rgb(35,153,22); fill-rule: nonzero; opacity: 1;" vector-effect="non-scaling-stroke"  transform=" translate(-2530, -2450)" d="M 2525 2450 C 2535 2439 2545 2430 2548 2430 C 2551 2430 2545 2439 2535 2450 C 2525 2461 2515 2470 2512 2470 C 2509 2470 2515 2461 2525 2450 z" stroke-linecap="round" />
</g>
		<g transform="matrix(0.13 0 0 -0.13 28.67 44.74)"  >
<path style="stroke: none; stroke-width: 1; stroke-dasharray: none; stroke-linecap: butt; stroke-dashoffset: 0; stroke-linejoin: miter; stroke-miterlimit: 4; fill: rgb(35,153,22); fill-rule: nonzero; opacity: 1;" vector-effect="non-scaling-stroke"  transform=" translate(-2715.03, -2164.9)" d="M 2700 2176 C 2700 2174 2708 2166 2718 2159 C 2733 2146 2734 2147 2721 2163 C 2708 2179 2700 2184 2700 2176 z" stroke-linecap="round" />
</g>
		<g transform="matrix(0.13 0 0 -0.13 -59.08 18.43)"  >
<path style="stroke: none; stroke-width: 1; stroke-dasharray: none; stroke-linecap: butt; stroke-dashoffset: 0; stroke-linejoin: miter; stroke-miterlimit: 4; fill: rgb(35,153,22); fill-rule: nonzero; opacity: 1;" vector-effect="non-scaling-stroke"  transform=" translate(-2056.9, -2362.18)" d="M 2045 2360 C 2042 2354 2046 2353 2054 2356 C 2072 2363 2075 2370 2061 2370 C 2055 2370 2048 2366 2045 2360 z" stroke-linecap="round" />
</g>
		<g transform="matrix(0.13 0 0 -0.13 -65.27 21.92)"  >
<path style="stroke: none; stroke-width: 1; stroke-dasharray: none; stroke-linecap: butt; stroke-dashoffset: 0; stroke-linejoin: miter; stroke-miterlimit: 4; fill: rgb(35,153,22); fill-rule: nonzero; opacity: 1;" vector-effect="non-scaling-stroke"  transform=" translate(-2010.48, -2336.03)" d="M 2004 2334 C 1986 2320 1986 2319 2008 2330 C 2020 2336 2030 2343 2030 2345 C 2030 2353 2025 2351 2004 2334 z" stroke-linecap="round" />
</g>
		<g transform="matrix(0.13 0 0 -0.13 60.67 42.07)"  >
<path style="stroke: none; stroke-width: 1; stroke-dasharray: none; stroke-linecap: butt; stroke-dashoffset: 0; stroke-linejoin: miter; stroke-miterlimit: 4; fill: rgb(35,153,22); fill-rule: nonzero; opacity: 1;" vector-effect="non-scaling-stroke"  transform=" translate(-2955.03, -2184.9)" d="M 2940 2196 C 2940 2194 2948 2186 2958 2179 C 2973 2166 2974 2167 2961 2183 C 2948 2199 2940 2204 2940 2196 z" stroke-linecap="round" />
</g>
		<g transform="matrix(0.13 0 0 -0.13 12.73 55.72)"  >
<path style="stroke: none; stroke-width: 1; stroke-dasharray: none; stroke-linecap: butt; stroke-dashoffset: 0; stroke-linejoin: miter; stroke-miterlimit: 4; fill: rgb(35,153,22); fill-rule: nonzero; opacity: 1;" vector-effect="non-scaling-stroke"  transform=" translate(-2595.51, -2082.5)" d="M 2509 2183 C 2497 2122 2501 2113 2573 2044 L 2644 1975 L 2577 2047 C 2540 2086 2510 2121 2510 2125 C 2510 2134 2595 2062 2635 2020 C 2652 2003 2674 1983 2685 1978 C 2696 1972 2665 2004 2617 2050 C 2569 2096 2524 2142 2518 2154 C 2512 2166 2534 2150 2566 2120 C 2670 2022 2687 2013 2600 2103 C 2554 2151 2514 2190 2513 2190 C 2511 2190 2509 2187 2509 2183 z" stroke-linecap="round" />
</g>
		<g transform="matrix(0.13 0 0 -0.13 20.67 56.72)"  >
<path style="stroke: none; stroke-width: 1; stroke-dasharray: none; stroke-linecap: butt; stroke-dashoffset: 0; stroke-linejoin: miter; stroke-miterlimit: 4; fill: rgb(35,153,22); fill-rule: nonzero; opacity: 1;" vector-effect="non-scaling-stroke"  transform=" translate(-2655, -2075)" d="M 2650 2075 C 2669 2056 2686 2040 2689 2040 C 2692 2040 2679 2056 2660 2075 C 2641 2094 2624 2110 2621 2110 C 2618 2110 2631 2094 2650 2075 z" stroke-linecap="round" />
</g>
		<g transform="matrix(0.13 0 0 -0.13 5.92 61.47)"  >
<path style="stroke: none; stroke-width: 1; stroke-dasharray: none; stroke-linecap: butt; stroke-dashoffset: 0; stroke-linejoin: miter; stroke-miterlimit: 4; fill: rgb(35,153,22); fill-rule: nonzero; opacity: 1;" vector-effect="non-scaling-stroke"  transform=" translate(-2544.38, -2039.42)" d="M 2500 2084 C 2500 2079 2523 2052 2552 2025 C 2587 1990 2597 1984 2582 2005 C 2556 2043 2500 2097 2500 2084 z" stroke-linecap="round" />
</g>
		<g transform="matrix(0.13 0 0 -0.13 4.52 64.51)"  >
<path style="stroke: none; stroke-width: 1; stroke-dasharray: none; stroke-linecap: butt; stroke-dashoffset: 0; stroke-linejoin: miter; stroke-miterlimit: 4; fill: rgb(35,153,22); fill-rule: nonzero; opacity: 1;" vector-effect="non-scaling-stroke"  transform=" translate(-2533.91, -2016.61)" d="M 2509 2031 C 2515 2021 2532 2005 2547 1995 C 2573 1979 2572 1980 2541 2014 C 2502 2054 2495 2058 2509 2031 z" stroke-linecap="round" />
</g>
		<g transform="matrix(0.13 0 0 -0.13 -24.58 65.46)"  >
<path style="stroke: none; stroke-width: 1; stroke-dasharray: none; stroke-linecap: butt; stroke-dashoffset: 0; stroke-linejoin: miter; stroke-miterlimit: 4; fill: rgb(35,153,22); fill-rule: nonzero; opacity: 1;" vector-effect="non-scaling-stroke"  transform=" translate(-2315.65, -2009.5)" d="M 2310 2010 C 2301 2004 2300 2000 2307 2000 C 2313 2000 2322 2005 2325 2010 C 2333 2022 2329 2022 2310 2010 z" stroke-linecap="round" />
</g>
		<g transform="matrix(0.13 0 0 -0.13 5.33 70.72)"  >
<path style="stroke: none; stroke-width: 1; stroke-dasharray: none; stroke-linecap: butt; stroke-dashoffset: 0; stroke-linejoin: miter; stroke-miterlimit: 4; fill: rgb(35,153,22); fill-rule: nonzero; opacity: 1;" vector-effect="non-scaling-stroke"  transform=" translate(-2540, -1970)" d="M 2535 1970 C 2556 1948 2576 1930 2579 1930 C 2582 1930 2566 1948 2545 1970 C 2524 1992 2504 2010 2501 2010 C 2498 2010 2514 1992 2535 1970 z" stroke-linecap="round" />
</g>
		<g transform="matrix(0.13 0 0 -0.13 3.34 72.74)"  >
<path style="stroke: none; stroke-width: 1; stroke-dasharray: none; stroke-linecap: butt; stroke-dashoffset: 0; stroke-linejoin: miter; stroke-miterlimit: 4; fill: rgb(35,153,22); fill-rule: nonzero; opacity: 1;" vector-effect="non-scaling-stroke"  transform=" translate(-2525.03, -1954.9)" d="M 2510 1966 C 2510 1964 2518 1956 2528 1949 C 2543 1936 2544 1937 2531 1953 C 2518 1969 2510 1974 2510 1966 z" stroke-linecap="round" />
</g>
		<g transform="matrix(0.13 0 0 -0.13 5.67 79.04)"  >
<path style="stroke: none; stroke-width: 1; stroke-dasharray: none; stroke-linecap: butt; stroke-dashoffset: 0; stroke-linejoin: miter; stroke-miterlimit: 4; fill: rgb(35,153,22); fill-rule: nonzero; opacity: 1;" vector-effect="non-scaling-stroke"  transform=" translate(-2542.5, -1907.63)" d="M 2540 1908 C 2581 1863 2590 1855 2590 1863 C 2590 1865 2569 1886 2543 1910 L 2495 1955 L 2540 1908 z" stroke-linecap="round" />
</g>
		<g transform="matrix(0.13 0 0 -0.13 4.67 82.06)"  >
<path style="stroke: none; stroke-width: 1; stroke-dasharray: none; stroke-linecap: butt; stroke-dashoffset: 0; stroke-linejoin: miter; stroke-miterlimit: 4; fill: rgb(35,153,22); fill-rule: nonzero; opacity: 1;" vector-effect="non-scaling-stroke"  transform=" translate(-2535, -1885)" d="M 2530 1885 C 2543 1871 2556 1860 2558 1860 C 2561 1860 2553 1871 2540 1885 C 2527 1899 2514 1910 2512 1910 C 2509 1910 2517 1899 2530 1885 z" stroke-linecap="round" />
</g>
		<g transform="matrix(0.13 0 0 -0.13 2 84.74)"  >
<path style="stroke: none; stroke-width: 1; stroke-dasharray: none; stroke-linecap: butt; stroke-dashoffset: 0; stroke-linejoin: miter; stroke-miterlimit: 4; fill: rgb(35,153,22); fill-rule: nonzero; opacity: 1;" vector-effect="non-scaling-stroke"  transform=" translate(-2515.03, -1864.9)" d="M 2500 1876 C 2500 1874 2508 1866 2518 1859 C 2533 1846 2534 1847 2521 1863 C 2508 1879 2500 1884 2500 1876 z" stroke-linecap="round" />
</g>
		<g transform="matrix(0.13 0 0 -0.13 4.89 90.94)"  >
<path style="stroke: none; stroke-width: 1; stroke-dasharray: none; stroke-linecap: butt; stroke-dashoffset: 0; stroke-linejoin: miter; stroke-miterlimit: 4; fill: rgb(35,153,22); fill-rule: nonzero; opacity: 1;" vector-effect="non-scaling-stroke"  transform=" translate(-2536.64, -1818.4)" d="M 2504 1842 C 2512 1829 2570 1786 2570 1793 C 2570 1796 2553 1810 2533 1826 C 2513 1841 2500 1849 2504 1842 z" stroke-linecap="round" />
</g>
		<g transform="matrix(0.13 0 0 -0.13 8 89.39)"  >
<path style="stroke: none; stroke-width: 1; stroke-dasharray: none; stroke-linecap: butt; stroke-dashoffset: 0; stroke-linejoin: miter; stroke-miterlimit: 4; fill: rgb(35,153,22); fill-rule: nonzero; opacity: 1;" vector-effect="non-scaling-stroke"  transform=" translate(-2560, -1830)" d="M 2555 1830 C 2565 1819 2575 1810 2578 1810 C 2581 1810 2575 1819 2565 1830 C 2555 1841 2545 1850 2542 1850 C 2539 1850 2545 1841 2555 1830 z" stroke-linecap="round" />
</g>
		<g transform="matrix(0.13 0 0 -0.13 2.69 96.73)"  >
<path style="stroke: none; stroke-width: 1; stroke-dasharray: none; stroke-linecap: butt; stroke-dashoffset: 0; stroke-linejoin: miter; stroke-miterlimit: 4; fill: rgb(35,153,22); fill-rule: nonzero; opacity: 1;" vector-effect="non-scaling-stroke"  transform=" translate(-2520.18, -1774.92)" d="M 2501 1787 C 2503 1786 2514 1778 2525 1770 C 2544 1756 2544 1756 2531 1773 C 2524 1782 2513 1790 2507 1790 C 2501 1790 2499 1789 2501 1787 z" stroke-linecap="round" />
</g>
		<g transform="matrix(0.13 0 0 -0.13 -96.69 176.29)"  >
<path style="stroke: none; stroke-width: 1; stroke-dasharray: none; stroke-linecap: butt; stroke-dashoffset: 0; stroke-linejoin: miter; stroke-miterlimit: 4; fill: rgb(35,153,22); fill-rule: nonzero; opacity: 1;" vector-effect="non-scaling-stroke"  transform=" translate(-1774.81, -1178.29)" d="M 1748 1243 C 1722 1212 1710 1183 1710 1145 C 1710 1117 1715 1108 1733 1101 C 1764 1089 1791 1102 1818 1140 C 1842 1176 1847 1229 1828 1248 C 1810 1266 1765 1263 1748 1243 z" stroke-linecap="round" />
</g>
		<g transform="matrix(0.13 0 0 -0.13 96.79 167.68)"  >
<path style="stroke: none; stroke-width: 1; stroke-dasharray: none; stroke-linecap: butt; stroke-dashoffset: 0; stroke-linejoin: miter; stroke-miterlimit: 4; fill: rgb(35,153,22); fill-rule: nonzero; opacity: 1;" vector-effect="non-scaling-stroke"  transform=" translate(-3225.91, -1242.83)" d="M 3192 1274 C 3171 1260 3161 1212 3176 1197 C 3179 1194 3205 1205 3232 1222 L 3283 1253 L 3260 1272 C 3233 1294 3221 1295 3192 1274 z" stroke-linecap="round" />
</g>
		<g transform="matrix(0.13 0 0 -0.13 21.39 183.36)"  >
<path style="stroke: none; stroke-width: 1; stroke-dasharray: none; stroke-linecap: butt; stroke-dashoffset: 0; stroke-linejoin: miter; stroke-miterlimit: 4; fill: rgb(35,153,22); fill-rule: nonzero; opacity: 1;" vector-effect="non-scaling-stroke"  transform=" translate(-2660.42, -1125.21)" d="M 2604 1154 C 2607 1145 2610 1125 2610 1108 C 2610 1078 2610 1077 2653 1084 C 2706 1093 2725 1110 2716 1144 C 2710 1168 2705 1170 2654 1170 C 2607 1170 2599 1167 2604 1154 z" stroke-linecap="round" />
</g>
		<g transform="matrix(0.13 0 0 -0.13 24.59 203.71)"  >
<path style="stroke: none; stroke-width: 1; stroke-dasharray: none; stroke-linecap: butt; stroke-dashoffset: 0; stroke-linejoin: miter; stroke-miterlimit: 4; fill: rgb(35,153,22); fill-rule: nonzero; opacity: 1;" vector-effect="non-scaling-stroke"  transform=" translate(-2684.45, -972.63)" d="M 2646 1023 C 2620 1019 2618 1016 2624 988 C 2627 971 2630 949 2630 939 C 2630 925 2637 920 2659 920 C 2707 920 2739 937 2746 965 C 2757 1009 2714 1033 2646 1023 z" stroke-linecap="round" />
</g>
		<g transform="matrix(0.13 0 0 -0.13 -21.95 191.38)"  >
<path style="stroke: none; stroke-width: 1; stroke-dasharray: none; stroke-linecap: butt; stroke-dashoffset: 0; stroke-linejoin: miter; stroke-miterlimit: 4; fill: rgb(35,153,22); fill-rule: nonzero; opacity: 1;" vector-effect="non-scaling-stroke"  transform=" translate(-2335.35, -1065.09)" d="M 2296 1084 C 2270 1059 2277 1043 2318 1036 C 2378 1026 2390 1028 2390 1049 C 2390 1076 2364 1100 2335 1100 C 2322 1100 2304 1093 2296 1084 z" stroke-linecap="round" />
</g>
</g>
</g>
</svg>