<!DOCTYPE svg PUBLIC "-//W3C//DTD SVG 1.1//EN" "http://www.w3.org/Graphics/SVG/1.1/DTD/svg11.dtd">
<!-- Uploaded to: SVG Repo, www.svgrepo.com, Transformed by: SVG Repo Mixer Tools -->
<svg fill="#c00c0c" height="100px" width="100px" version="1.1" id="Layer_1" xmlns="http://www.w3.org/2000/svg" xmlns:xlink="http://www.w3.org/1999/xlink" viewBox="-47.26 -47.26 567.12 567.12" xml:space="preserve" transform="rotate(45)matrix(-1, 0, 0, -1, 0, 0)" stroke="#c00c0c" stroke-width="4.725960000000001">
<g id="SVGRepo_bgCarrier" stroke-width="0"/>
<g id="SVGRepo_tracerCarrier" stroke-linecap="round" stroke-linejoin="round"/>
<g id="SVGRepo_iconCarrier"> <g> <g> <path d="M131.928,280.836H2.154c2.788,24.702,7.285,45.671,7.285,45.671h126.624C136.062,326.508,132.28,302.024,131.928,280.836z "/> </g> </g> <g> <g> <path d="M463.158,206.243c-80.207-80.207-373.512-80.207-453.719,0c-8.937,8.937-10.349,31.618-8.996,54.901H133.14 c0.657-3.483,1.58-6.384,2.922-8.242c35.438-49.089,165.032-49.089,200.471,0c1.341,1.858,2.265,4.76,2.922,8.242h132.698 C473.506,237.861,472.094,215.18,463.158,206.243z"/> </g> </g> <g> <g> <path d="M340.668,280.836c-0.352,21.188-4.135,45.671-4.135,45.671h126.624c0,0,4.496-20.969,7.284-45.671H340.668z"/> </g> </g> </g>
</svg>